<?xml version="1.0" standalone="no"?>
<!DOCTYPE svg PUBLIC "-//W3C//DTD SVG 20010904//EN"
 "http://www.w3.org/TR/2001/REC-SVG-20010904/DTD/svg10.dtd">
<svg version="1.0" xmlns="http://www.w3.org/2000/svg"
 width="2000.000000pt" height="1608.000000pt" viewBox="0 0 2000.000000 1608.000000"
 preserveAspectRatio="xMidYMid meet">
<metadata>
Created by potrace 1.16, written by Peter Selinger 2001-2019
</metadata>
<g transform="translate(0.000000,1608.000000) scale(0.100000,-0.100000)"
fill="#000000" stroke="none">
<path d="M10285 13190 c-292 -6 -370 -11 -471 -28 -381 -67 -753 -205 -1060
-392 -59 -37 -61 -37 -200 -44 -277 -14 -551 -54 -781 -115 -416 -111 -914
-405 -1307 -772 -113 -106 -1760 -1939 -1760 -1961 -1 -9 184 -270 410 -580
l411 -563 6 -165 c7 -179 26 -288 76 -440 128 -381 433 -713 837 -910 103 -50
134 -59 134 -39 0 19 90 172 153 261 292 408 754 740 1216 872 211 60 403 77
668 57 187 -14 351 -45 475 -91 165 -60 340 -183 452 -317 33 -40 64 -69 68
-65 12 13 96 234 123 327 74 255 99 437 98 720 0 175 -4 249 -22 364 -39 253
-122 539 -217 750 -39 83 -41 96 -18 105 19 7 67 -41 167 -167 471 -595 708
-1264 734 -2067 33 -1065 -375 -2363 -1149 -3655 -231 -384 -509 -786 -753
-1085 -116 -143 -125 -157 -125 -200 0 -61 47 -110 105 -110 43 0 935 318
1590 567 1563 594 2485 1006 3175 1421 460 276 808 540 1116 847 498 497 774
1013 849 1588 20 155 20 474 0 636 -48 386 -173 771 -391 1202 -89 177 -107
201 -143 197 l-26 -3 -6 -225 c-6 -231 -19 -336 -63 -524 -204 -861 -862
-1740 -1871 -2496 -251 -188 -478 -340 -509 -340 -47 0 -29 35 89 171 806 925
1348 1940 1484 2777 59 361 52 706 -21 1017 -70 301 -226 615 -435 875 -131
164 -421 435 -509 478 -26 12 -41 13 -62 6 -40 -14 -39 -53 2 -176 220 -658
192 -1359 -80 -2050 -104 -262 -248 -538 -388 -742 -67 -98 -88 -118 -108 -98
-9 9 -4 52 25 199 80 399 103 645 94 1011 -7 316 -35 523 -107 797 -189 720
-656 1393 -1389 1999 -74 61 -147 122 -162 136 l-27 25 149 505 c82 278 149
508 149 513 0 8 -142 7 -695 -3z m-2040 -1679 c-44 -42 -617 -565 -960 -875
-121 -110 -232 -211 -247 -224 -52 -48 -47 -13 24 161 39 94 117 285 173 423
56 138 119 277 140 308 53 81 130 136 230 166 36 10 576 76 650 79 l30 1 -40
-39z"/>
</g>
</svg>
